<svg aria-hidden="true" style="position: absolute; width: 0; height: 0; overflow: hidden;" version="1.1" xmlns="http://www.w3.org/2000/svg" xmlns:xlink="http://www.w3.org/1999/xlink">
<defs>
<symbol id="icon-play3" viewBox="0 0 32 32">
<path d="M27.314 4.686c-2.895-2.895-6.895-4.686-11.314-4.686s-8.419 1.79-11.314 4.686c-2.895 2.895-4.686 6.895-4.686 11.314s1.79 8.419 4.686 11.314c2.895 2.895 6.895 4.686 11.314 4.686s8.419-1.79 11.314-4.686c2.895-2.895 4.686-6.895 4.686-11.314s-1.79-8.419-4.686-11.314zM25.943 25.943c-2.552 2.552-6.057 4.114-9.943 4.114s-7.39-1.562-9.943-4.114c-2.514-2.552-4.114-6.057-4.114-9.943s1.562-7.39 4.114-9.943c2.552-2.552 6.057-4.114 9.943-4.114s7.39 1.562 9.943 4.114c2.552 2.552 4.114 6.057 4.114 9.943s-1.6 7.39-4.114 9.943z"></path>
<path d="M24.876 14.857c-0.076-0.076-0.19-0.229-0.305-0.381-0.038-0.038-0.038-0.038-0.076-0.076-0.114-0.114-0.229-0.19-0.381-0.267l-5.638-3.238c0 0-0.038 0-0.038-0.038l-5.676-3.276c-0.495-0.305-1.067-0.343-1.6-0.229-0.533 0.152-0.99 0.495-1.295 0.99-0.114 0.152-0.152 0.343-0.229 0.495-0.038 0.114-0.038 0.267-0.076 0.419 0 0.038 0 0.114 0 0.152v13.143c0 0.571 0.229 1.105 0.61 1.486s0.914 0.61 1.486 0.61c0.19 0 0.419-0.038 0.61-0.114s0.381-0.152 0.533-0.267l5.6-3.238 0.076-0.038 5.638-3.238c0.038 0 0.038-0.038 0.076-0.038 0.457-0.305 0.8-0.762 0.914-1.257 0.152-0.533 0.076-1.105-0.229-1.6zM23.238 16.038c0 0.038-0.038 0.076-0.076 0.076h-0.038l-5.6 3.276-0.038 0.038-5.6 3.238c-0.038 0-0.038 0.038-0.076 0.038 0 0-0.038 0-0.038 0.038h-0.038c-0.038 0-0.076-0.038-0.114-0.038-0.038-0.038-0.038-0.076-0.038-0.114v-13.219c0.038-0.038 0.076-0.076 0.114-0.076s0.076 0 0.114 0l5.638 3.238 0.038 0.038 5.676 3.276 0.076 0.076c0 0.038 0 0.076 0 0.114z"></path>
</symbol>
<symbol id="icon-heart-footer" viewBox="0 0 32 32">
<path fill="#ff6b08" style="fill: var(--color1, #ff6b08)" d="M16 30.144l-2.24-2.218c-8.32-7.287-13.76-12.198-13.76-18.218 0-4.911 3.84-8.713 8.8-8.713 2.72 0 5.44 1.267 7.2 3.327 1.76-2.059 4.48-3.327 7.2-3.327 4.96 0 8.8 3.802 8.8 8.713 0 6.020-5.44 10.931-13.76 18.218l-2.24 2.218z"></path>
</symbol>
<symbol id="icon-cancel" viewBox="0 0 32 32">
<path d="M19.524 16l11.964-11.965c0.329-0.329 0.511-0.769 0.511-1.237s-0.182-0.909-0.511-1.238l-1.048-1.048c-0.33-0.33-0.769-0.511-1.238-0.511s-0.908 0.181-1.237 0.511l-11.964 11.964-11.965-11.964c-0.329-0.33-0.769-0.511-1.238-0.511s-0.908 0.181-1.237 0.511l-1.049 1.048c-0.683 0.683-0.683 1.793 0 2.475l11.965 11.965-11.965 11.964c-0.329 0.33-0.511 0.769-0.511 1.238s0.181 0.908 0.511 1.238l1.049 1.048c0.329 0.33 0.769 0.511 1.237 0.511s0.909-0.181 1.238-0.511l11.965-11.964 11.964 11.964c0.33 0.33 0.769 0.511 1.237 0.511h0.001c0.469 0 0.908-0.181 1.238-0.511l1.048-1.048c0.329-0.329 0.511-0.769 0.511-1.238s-0.182-0.908-0.511-1.238l-11.964-11.965z"></path>
</symbol>
<symbol id="icon-close2" viewBox="0 0 32 32">
<path fill="#f44336" style="fill: var(--color1, #f44336)" d="M2.074 32.026c-0.531 0-1.062-0.203-1.466-0.607-0.811-0.811-0.811-2.121 0-2.931l27.852-27.853c0.811-0.81 2.121-0.81 2.931 0s0.811 2.121 0 2.932l-27.852 27.853c-0.407 0.406-0.935 0.607-1.466 0.607z"></path>
<path fill="#f44336" style="fill: var(--color1, #f44336)" d="M29.926 32.026c-0.531 0-1.061-0.203-1.466-0.607l-27.852-27.853c-0.811-0.811-0.811-2.121 0-2.932s2.121-0.81 2.932 0l27.852 27.853c0.811 0.811 0.811 2.121 0 2.931-0.404 0.406-0.935 0.607-1.466 0.607z"></path>
</symbol>
<symbol id="icon-close" viewBox="0 0 32 32">
<path fill="#f44336" style="fill: var(--color1, #f44336)" d="M31.179 25.962l-25.078-25.078c-1.094-1.094-2.867-1.094-3.959 0l-1.322 1.32c-1.094 1.094-1.094 2.867 0 3.959l25.078 25.078c1.094 1.094 2.867 1.094 3.959 0l1.32-1.32c1.096-1.092 1.096-2.866 0.002-3.959z"></path>
<path fill="#f44336" style="fill: var(--color1, #f44336)" d="M25.899 0.883l-25.078 25.078c-1.094 1.094-1.094 2.867 0 3.959l1.32 1.32c1.094 1.094 2.867 1.094 3.959 0l25.080-25.077c1.094-1.094 1.094-2.867 0-3.959l-1.32-1.32c-1.094-1.096-2.867-1.096-3.961-0.002z"></path>
</symbol>
<symbol id="icon-cancel6" viewBox="0 0 32 32">
<path d="M17.768 16l13.866-13.866c0.488-0.488 0.488-1.28 0-1.768s-1.28-0.488-1.768 0l-13.866 13.866-13.866-13.866c-0.488-0.488-1.28-0.488-1.768 0s-0.488 1.28 0 1.768l13.866 13.866-13.866 13.866c-0.488 0.488-0.488 1.28 0 1.768 0.244 0.244 0.564 0.366 0.884 0.366s0.64-0.122 0.884-0.366l13.866-13.866 13.866 13.866c0.244 0.244 0.564 0.366 0.884 0.366s0.64-0.122 0.884-0.366c0.488-0.488 0.488-1.28 0-1.768l-13.866-13.866z"></path>
</symbol>
<symbol id="icon-cancel5" viewBox="0 0 32 32">
<path d="M27.321 4.684c-6.239-6.239-16.394-6.239-22.634 0-3.022 3.023-4.687 7.042-4.687 11.317s1.665 8.293 4.687 11.316c3.12 3.12 7.218 4.68 11.317 4.68s8.197-1.559 11.317-4.68c6.239-6.239 6.239-16.392 0-22.632zM25.568 25.563c-5.274 5.273-13.854 5.273-19.128 0-2.554-2.554-3.961-5.95-3.961-9.563s1.407-7.009 3.961-9.564c5.274-5.274 13.854-5.272 19.128 0 5.272 5.274 5.272 13.854 0 19.127z"></path>
<path d="M21.346 19.427l-3.509-3.504 3.509-3.504c0.483-0.483 0.483-1.268 0.001-1.753-0.485-0.486-1.269-0.485-1.754-0.001l-3.512 3.507-3.512-3.507c-0.485-0.483-1.269-0.485-1.754 0.001-0.483 0.485-0.483 1.269 0.001 1.753l3.509 3.504-3.509 3.504c-0.485 0.483-0.485 1.268-0.001 1.753 0.242 0.243 0.56 0.363 0.878 0.363s0.635-0.122 0.876-0.362l3.512-3.507 3.512 3.507c0.242 0.242 0.559 0.362 0.876 0.362s0.636-0.122 0.878-0.363c0.483-0.485 0.483-1.269-0.001-1.753z"></path>
</symbol>
<symbol id="icon-arrow-left" viewBox="0 0 32 32">
<path stroke-linejoin="round" stroke-linecap="round" stroke-miterlimit="4" stroke-width="2.6667" d="M25.333 16h-18.667"></path>
<path stroke-linejoin="round" stroke-linecap="round" stroke-miterlimit="4" stroke-width="2.6667" d="M16 25.333l-9.333-9.333 9.333-9.333"></path>
</symbol>
<symbol id="icon-arrow-right" viewBox="0 0 32 32">
<path stroke-linejoin="round" stroke-linecap="round" stroke-miterlimit="4" stroke-width="2.6667" d="M6.667 16h18.667"></path>
<path stroke-linejoin="round" stroke-linecap="round" stroke-miterlimit="4" stroke-width="2.6667" d="M16 25.333l9.333-9.333-9.333-9.333"></path>
</symbol>
<symbol id="icon-up-arrow" viewBox="0 0 32 32">
<path fill1="#ff6b01" style="fill: var(--color1, # #ff6b01)" d="M16 0c-8.837 0-16 7.163-16 16s7.163 16 16 16 16-7.163 16-16c-0.010-8.832-7.168-15.99-16-16z"></path>
<path fill="#fafafa" style="fill: var(--color2, #fafafa)" d="M17.476 5.362c-0.815-0.815-2.136-0.815-2.951 0l-7.708 7.716c-1.232 1.232-1.232 3.23 0 4.462 1.248 1.193 3.214 1.193 4.462 0l1.252-1.252v8.060c0 1.921 1.557 3.478 3.478 3.478s3.478-1.557 3.478-3.478v-8.060l1.252 1.252c1.248 1.193 3.214 1.193 4.462 0 1.232-1.232 1.232-3.23 0-4.462l-7.726-7.716z"></path>
</symbol>

<symbol id="icon-search-header" viewBox="0 0 32 32">
<path fill="none" stroke="#fff" style="stroke: var(--color2, #fff)" stroke-linejoin="round" stroke-linecap="round" stroke-miterlimit="4" stroke-width="2.6667" d="M14.667 25.333c5.891 0 10.667-4.776 10.667-10.667s-4.776-10.667-10.667-10.667c-5.891 0-10.667 4.776-10.667 10.667s4.776 10.667 10.667 10.667z"></path>
<path fill="none" stroke="#fff" style="stroke: var(--color2, #fff)" stroke-linejoin="round" stroke-linecap="round" stroke-miterlimit="4" stroke-width="2.6667" d="M28 28l-5.8-5.8"></path>
</symbol>
<symbol id="icon-logo-header" viewBox="0 0 32 32">
<path fill="none" stroke="#818181" style="stroke: var(--color3, #818181)" stroke-linejoin="round" stroke-linecap="round" stroke-miterlimit="4" stroke-width="2.6667" d="M26.427 2.667h-20.853c-1.605 0-2.907 1.301-2.907 2.907v20.853c0 1.605 1.301 2.907 2.907 2.907h20.853c1.605 0 2.907-1.301 2.907-2.907v-20.853c0-1.605-1.301-2.907-2.907-2.907z"></path>
<path fill="none" stroke="#818181" style="stroke: var(--color3, #818181)" stroke-linejoin="round" stroke-linecap="round" stroke-miterlimit="4" stroke-width="2.6667" d="M9.333 2.667v26.667"></path>
<path fill="none" stroke="#818181" style="stroke: var(--color3, #818181)" stroke-linejoin="round" stroke-linecap="round" stroke-miterlimit="4" stroke-width="2.6667" d="M22.667 2.667v26.667"></path>
<path fill="none" stroke="#818181" style="stroke: var(--color3, #818181)" stroke-linejoin="round" stroke-linecap="round" stroke-miterlimit="4" stroke-width="2.6667" d="M2.667 16h26.667"></path>
<path fill="none" stroke="#818181" style="stroke: var(--color3, #818181)" stroke-linejoin="round" stroke-linecap="round" stroke-miterlimit="4" stroke-width="2.6667" d="M2.667 9.333h6.667"></path>
<path fill="none" stroke="#818181" style="stroke: var(--color3, #818181)" stroke-linejoin="round" stroke-linecap="round" stroke-miterlimit="4" stroke-width="2.6667" d="M2.667 22.667h6.667"></path>
<path fill="none" stroke="#818181" style="stroke: var(--color3, #818181)" stroke-linejoin="round" stroke-linecap="round" stroke-miterlimit="4" stroke-width="2.6667" d="M22.667 22.667h6.667"></path>
<path fill="none" stroke="#818181" style="stroke: var(--color3, #818181)" stroke-linejoin="round" stroke-linecap="round" stroke-miterlimit="4" stroke-width="2.6667" d="M22.667 9.333h6.667"></path>
</symbol>

<symbol id="icon-telegram" viewBox="0 0 32 32">
<path fill="#039be5" style="fill: var(--color1, #039be5)" d="M12.556 20.241l-0.529 7.445c0.757 0 1.085-0.325 1.479-0.716l3.551-3.393 7.357 5.388c1.349 0.752 2.3 0.356 2.664-1.241l4.829-22.629 0.001-0.001c0.428-1.995-0.721-2.775-2.036-2.285l-28.387 10.868c-1.937 0.752-1.908 1.832-0.329 2.321l7.257 2.257 16.857-10.548c0.793-0.525 1.515-0.235 0.921 0.291z"></path>
</symbol>



</defs>
</svg>
